<svg xmlns="http://www.w3.org/2000/svg" version="1.1" xmlns:xlink="http://www.w3.org/1999/xlink" xmlns:svgjs="http://svgjs.dev/svgjs" width="1000" height="219" viewBox="0 0 1000 219"><g transform="matrix(1,0,0,1,-0.6060606060606233,-0.005610599873861588)"><svg viewBox="0 0 396 87" data-background-color="#1b4571" preserveAspectRatio="xMidYMid meet" height="219" width="1000" xmlns="http://www.w3.org/2000/svg" xmlns:xlink="http://www.w3.org/1999/xlink"><g id="tight-bounds" transform="matrix(1,0,0,1,0.2400000000000091,0.00222886844304071)"><svg viewBox="0 0 395.52 86.99553913432706" height="86.99553913432706" width="395.52"><g><svg viewBox="0 0 572.7793691345032 125.98414750929369" height="86.99553913432706" width="395.52"><g><rect width="8.220969926214423" height="109.39289219330854" x="147.51753552709923" y="8.295627657992576" fill="#ffffff" opacity="1" stroke-width="0" stroke="transparent" fill-opacity="1" class="rect-o-0" data-fill-palette-color="primary" rx="1%" id="o-0" data-palette-color="#ffffff"></rect></g><g transform="matrix(1,0,0,1,177.25936913450323,17.411702007434954)"><svg viewBox="0 0 395.5199999999999 91.16074349442378" height="91.16074349442378" width="395.5199999999999"><g><svg viewBox="0 0 395.5199999999999 91.16074349442378" height="91.16074349442378" width="395.5199999999999"><g><svg viewBox="0 0 395.5199999999999 91.16074349442378" height="91.16074349442378" width="395.5199999999999"><g transform="matrix(1,0,0,1,0,0)"><svg width="395.5199999999999" viewBox="0.4000000059604645 -39.599998474121094 174.8400115966797 40.29999923706055" height="91.16074349442378" data-palette-color="#ffffff"><path d="M16.5 0.7Q11.7 0.7 7.43-0.13 3.15-0.95 0.85-2L0.85-2 0.85-11.9 11.85-11.9Q11.85-10.35 12.55-9.65 13.25-8.95 15.1-8.95L15.1-8.95Q16.65-8.95 17.32-9.43 18-9.9 18-10.85L18-10.85Q18-11.65 17.35-12.23 16.7-12.8 15.1-13.4L15.1-13.4 10.8-14.9Q5.25-17 2.83-19.85 0.4-22.7 0.4-27.55L0.4-27.55Q0.4-33.45 4.28-36.52 8.15-39.6 17.2-39.6L17.2-39.6Q21.55-39.6 25.38-38.73 29.2-37.85 31.55-36.4L31.55-36.4 31.55-27.45 21.55-27.45Q21.55-29.95 18.45-29.95L18.45-29.95Q16.95-29.95 16.32-29.58 15.7-29.2 15.7-28.25L15.7-28.25Q15.7-27.4 16.43-26.9 17.15-26.4 18.8-25.85L18.8-25.85 23.15-24.35Q28.45-22.55 30.88-19.68 33.3-16.8 33.3-12.15L33.3-12.15Q33.3-5.8 29.03-2.55 24.75 0.7 16.5 0.7L16.5 0.7ZM34.7 0L34.7-8.2 37.2-8.2 37.2-30.7 34.7-30.7 34.7-38.9 56.65-38.9Q63.1-38.9 66.5-36.13 69.9-33.35 69.9-27.15L69.9-27.15Q69.9-20.95 66.5-18.18 63.1-15.4 56.65-15.4L56.65-15.4 51.2-15.4 51.2-8.2 56-8.2 56 0 34.7 0ZM51.2-22.5L52.9-22.5Q55.8-22.5 55.8-25.7L55.8-25.7 55.8-27.5Q55.8-29.15 55.07-29.93 54.35-30.7 52.9-30.7L52.9-30.7 51.2-30.7 51.2-22.5ZM94.84-38.9L103.3-8.2 105.3-8.2 105.3 0 85.69 0 85.69-8.2 88.69-8.2 87.89-12.2 81.09-12.2 80.3-8.2 83.3-8.2 83.3 0 66.19 0 66.19-8.2 68.19-8.2 76.64-38.9 94.84-38.9ZM84.25-27.45L82.19-17.5 86.8-17.5 84.75-27.45 84.25-27.45ZM124.79 0.7Q115.34 0.7 110.22-4.1 105.09-8.9 105.09-19.45L105.09-19.45Q105.09-39.6 124.69-39.6L124.69-39.6Q129.44-39.6 133.52-38.45 137.59-37.3 139.59-35.9L139.59-35.9 139.59-23.4 127.59-23.4 127.59-27Q127.59-28.9 126.74-29.8 125.89-30.7 124.19-30.7L124.19-30.7Q122.49-30.7 121.64-29.8 120.79-28.9 120.79-27L120.79-27 120.79-11.9Q120.79-10 121.64-9.1 122.49-8.2 124.19-8.2L124.19-8.2Q125.89-8.2 126.74-9.1 127.59-10 127.59-11.9L127.59-11.9 127.59-15.95 139.59-15.95 139.59-3Q137.54-1.6 133.52-0.45 129.49 0.7 124.79 0.7L124.79 0.7ZM175.24 0L141.49 0 141.49-8.2 143.99-8.2 143.99-30.7 141.49-30.7 141.49-38.9 175.24-38.9 175.24-23.8 164.04-23.8 164.04-30.7 157.99-30.7 157.99-22.8 162.39-22.8 162.39-17.1 157.99-17.1 157.99-8.2 164.04-8.2 164.04-16.1 175.24-16.1 175.24 0Z" opacity="1" transform="matrix(1,0,0,1,0,0)" fill="#ffffff" class="undefined-text-0" data-fill-palette-color="primary" id="text-0"></path></svg></g></svg></g></svg></g></svg></g><g><svg viewBox="0 0 125.99667184590965 125.98414750929369" height="125.98414750929369" width="125.99667184590965"><g><svg xmlns="http://www.w3.org/2000/svg" xmlns:xlink="http://www.w3.org/1999/xlink" version="1.1" x="0" y="0" viewBox="0.05348396301269531 0.0006561279296875 100.00894165039062 99.9990005493164" enable-background="new 0 0 100 100" xml:space="preserve" width="125.99667184590965" height="125.98414750929369" class="icon-icon-0" data-fill-palette-color="accent" id="icon-0"><g fill="#bf2051" data-fill-palette-color="accent"><path d="M27.159 78.945c7.414-3.59 18.067-11.203 29.313-22.434 8.445-8.435 15.599-17.303 20.143-24.972 1.022-1.727 1.821-3.247 2.458-4.595C72.288 18.454 61.855 13 50.167 13c-20.402 0-37 16.598-37 37C13.167 61.711 18.642 72.16 27.159 78.945z" fill="#bf2051" data-fill-palette-color="accent"></path><path d="M50.543 86.99c20.107-0.202 36.42-16.52 36.614-36.63-4.851 6.591-10.606 13.281-17.084 19.75C63.677 76.499 57.063 82.185 50.543 86.99z" fill="#bf2051" data-fill-palette-color="accent"></path><path d="M96.963 3.096c-6.135-6.127-20.19-2.853-36.331 7.128 4.798 1.168 9.25 3.151 13.203 5.914 4.457-1.828 8.616-1.82 10.253-0.185 2.379 2.375 1.308 7.779-2.37 14.75-0.01-0.016-0.019-0.033-0.028-0.048-4.305 8.177-12.211 18.521-22.391 28.688C49.24 69.388 39.006 77.218 30.863 81.552c0.009 0.005 0.018 0.01 0.026 0.016-7.085 3.766-12.582 4.88-14.985 2.479-1.888-1.885-1.61-5.684 0.533-10.845-2.77-3.974-4.759-8.419-5.916-13.192C0.476 76.178-3.015 90.867 3.031 96.905c9.555 9.542 38.331-3.721 64.269-29.625C93.238 41.377 106.519 12.638 96.963 3.096z" fill="#bf2051" data-fill-palette-color="accent"></path></g></svg></g></svg></g></svg></g><defs></defs></svg><rect width="395.52" height="86.99553913432706" fill="none" stroke="none" visibility="hidden"></rect></g></svg></g></svg>